<svg width="21" height="22" viewBox="0 0 21 22" fill="none" xmlns="http://www.w3.org/2000/svg">
<path d="M1.12573 9.44894C1.1103 9.44377 1.10401 9.43918 1.10284 9.43831C1.10142 9.43725 1.10086 9.43661 1.1002 9.43567C1.09819 9.43283 1.09232 9.42196 1.09164 9.40337C1.09095 9.38477 1.09601 9.3735 1.0978 9.37052C1.09839 9.36953 1.0989 9.36885 1.10024 9.36769C1.10134 9.36674 1.10727 9.3617 1.12228 9.35541L0.755166 8.47921L1.12228 9.35541L19.8173 1.52251C19.831 1.51675 19.8383 1.51597 19.8401 1.51583C19.8421 1.51565 19.8433 1.51577 19.8447 1.51609C19.8486 1.51696 19.8597 1.52101 19.8719 1.53327C19.8842 1.54554 19.8883 1.55665 19.8891 1.56052C19.8894 1.56195 19.8896 1.56315 19.8894 1.56515C19.8892 1.56687 19.8885 1.57419 19.8827 1.58795L12.0498 20.2829C12.0435 20.2979 12.0385 20.3039 12.0375 20.305C12.0364 20.3063 12.0357 20.3068 12.0347 20.3074C12.0317 20.3092 12.0204 20.3143 12.0018 20.3136C11.9832 20.3129 11.9724 20.307 11.9695 20.305C11.9686 20.3043 11.968 20.3038 11.9669 20.3024C11.966 20.3012 11.9614 20.2949 11.9563 20.2795L9.54793 13.0872C9.35364 12.507 8.89825 12.0516 8.31801 11.8573L1.12573 9.44894Z" stroke="#264B82" stroke-width="1.9"/>
</svg>