<svg width="36" height="36" fill="none" xmlns="http://www.w3.org/2000/svg"><circle cx="18" cy="18" r="18" fill="#DB2B21"/><path d="M19.816 15.084l7.315 4.933" stroke="#fff" stroke-width="1.8" stroke-linecap="round"/><path transform="matrix(.8286 .55682 -.55512 .83016 18.158 9.038)" stroke="#fff" stroke-width="1.8" stroke-linejoin="round" d="M0 0h4.781v8.187H0z"/><path d="M16.921 8.216l6.416 4.318m-10.945 2.467l6.416 4.318" stroke="#fff" stroke-width="1.8" stroke-linecap="round"/><path d="M21.942 25.823v.9a.9.9 0 00.9-.9h-.9zm-11.765 0h-.9a.9.9 0 00.9.9v-.9zm2-2.63h7.765v-1.8h-7.765v1.8zm8.865 1.1v1.53h1.8v-1.53h-1.8zm.9.63H10.177v1.8h11.765v-1.8zm-10.865.9v-1.53h-1.8v1.53h1.8zm8.865-2.63a1.1 1.1 0 011.1 1.1h1.8a2.9 2.9 0 00-2.9-2.9v1.8zm-7.765-1.8a2.9 2.9 0 00-2.9 2.9h1.8a1.1 1.1 0 011.1-1.1v-1.8z" fill="#fff"/></svg>