<svg width="30" height="30" fill="none" xmlns="http://www.w3.org/2000/svg"><path d="M8.798 6.498a.797.797 0 000-1.128L7.67 4.242a.804.804 0 00-1.128 0 .803.803 0 000 1.128L7.67 6.498a.796.796 0 001.127 0zm6.999-2.236a.794.794 0 00.563-.237.793.793 0 00.234-.565V1.866a.799.799 0 00-.797-.798.799.799 0 00-.734.49l-.063.31v1.595a.8.8 0 00.797.798zm-11.161 7.97H3.042a.801.801 0 00-.798.798.8.8 0 00.798.798h1.594a.8.8 0 00.798-.798.8.8 0 00-.798-.798zM24.582 5.37a.804.804 0 00-1.129 0l-1.127 1.128a.798.798 0 001.127 1.128l1.129-1.128a.798.798 0 000-1.128zm2.376 8.454h-1.594a.801.801 0 00-.798.798.8.8 0 00.798.796h1.594a.799.799 0 00.798-.796.8.8 0 00-.798-.798zM15 7.533c-3.989 0-7.234 3.252-7.234 7.248a7.198 7.198 0 002.995 5.866v3.033h1.889v-3.536a.944.944 0 00-.448-.803 5.33 5.33 0 01-2.548-4.56c0-2.955 2.399-5.36 5.346-5.36 2.948 0 5.345 2.405 5.345 5.36a5.33 5.33 0 01-2.547 4.56.944.944 0 00-.448.803v3.536h1.888v-3.033a7.2 7.2 0 002.995-5.865c0-3.997-3.244-7.249-7.233-7.249zm0 19.512c-.979 0-1.81-.604-2.156-1.478h-1.97A4.204 4.204 0 0015 28.933a4.205 4.205 0 004.126-3.366h-1.972A2.31 2.31 0 0115 27.045z" fill="#264B82"/></svg>